# xmcd
#
# Track frame offsets:
# 150
# 9481
# 27595
# 45046
# 57607
# 70214
# 81640
# 96922
# 110051
# 122678
# 137422
# 154373
#
# Disc length: 2258 seconds
#
#
# Revision: 1
# Processed by: cddbd v1.5.1PL2 Copyright (c) Steve Scherf et al.
# Submitted via: FreeRIP 2.945 
#
DISCID=a508d00c
DTITLE=Milionário and José Rico - Sucessos de Ouro - Disco 1
DYEAR=1900
DGENRE=Country
TTITLE0=Estrada da Vida
TTITLE1=Explosão de Amor
TTITLE2=Tribunal do Amor
TTITLE3=Coração de Pedra
TTITLE4=Do Mundo Nada Se Leva
TTITLE5=O Tropeiro
TTITLE6=Duas Camisas
TTITLE7=Genro Valente
TTITLE8=Migalhas de Amor
TTITLE9=Amor Dividido
TTITLE10=Esquina do Adeus
TTITLE11=Jogo do Amor
EXTD=
EXTT0=
EXTT1=
EXTT2=
EXTT3=
EXTT4=
EXTT5=
EXTT6=
EXTT7=
EXTT8=
EXTT9=
EXTT10=
EXTT11=
PLAYORDER=
